
********* Frozen.2010.DVDRiP.XViD.OPTIONAL_MULTI_SUB-Zen_Bud ***********

Format                           : AVI
File size                        : 706 MiB
Duration                         : 1h 29mn
Overall bit rate                 : 1 099 Kbps

Video

Format                           : MPEG-4 Visual
Codec ID/Hint                    : XviD
Duration                         : 1h 29mn
Bit rate                         : 958 Kbps
Width                            : 720 pixels
Height                           : 428 pixels
Display aspect ratio             : 2.35:1
Stream size                      : 616 MiB (87%)
Writing library                  : XviD 1.1.2 (UTC 2006-11-01)

Audio

Format                           : MPEG Audio
Codec ID/Hint                    : MP3
Duration                         : 1h 29mn
Bit rate                         : 128 Kbps
Channel(s)                       : 2 channels
Sampling rate                    : 48.0 KHz
Stream size                      : 82.2 MiB (12%)
Language                         : English

Text #1
Language                         : Swedish

Text #2
Language                         : Norwegian

Text #3
Language                         : Danish

Text #4
Language                         : Finnish

Text #5
Language                         : Icelandic

